<svg width="17" height="19" viewBox="0 0 17 19" fill="none" xmlns="http://www.w3.org/2000/svg">
<path d="M1 4.33334H2.66667H16" stroke="#FF6A6A" stroke-width="2" stroke-linecap="round" stroke-linejoin="round"/>
<path d="M14.3327 4.33333V16C14.3327 16.442 14.1571 16.8659 13.8445 17.1785C13.532 17.4911 13.108 17.6667 12.666 17.6667H4.33268C3.89065 17.6667 3.46673 17.4911 3.15417 17.1785C2.84161 16.8659 2.66602 16.442 2.66602 16V4.33333M5.16602 4.33333V2.66667C5.16602 2.22464 5.34161 1.80072 5.65417 1.48816C5.96673 1.17559 6.39066 1 6.83268 1H10.166C10.608 1 11.032 1.17559 11.3445 1.48816C11.6571 1.80072 11.8327 2.22464 11.8327 2.66667V4.33333" stroke="#FF6A6A" stroke-width="2" stroke-linecap="round" stroke-linejoin="round"/>
<path d="M6.83398 8.5V13.5" stroke="#FF6A6A" stroke-width="2" stroke-linecap="round" stroke-linejoin="round"/>
<path d="M10.166 8.5V13.5" stroke="#FF6A6A" stroke-width="2" stroke-linecap="round" stroke-linejoin="round"/>
</svg>
